name D:\school\WTK\thesis\model\3dpredictsim\Results\MidTarsalJoint\Fal_s1_bCst_PF_Natali2010_ls150_MT_k150_d020_MTP_T5_ig23.mot
datacolumns 128
datarows 4
range 0.58267389 0.61763432
endheader
time	pelvis_tilt	pelvis_list	pelvis_rotation	pelvis_tx	pelvis_ty	pelvis_tz	hip_flexion_l	hip_adduction_l	hip_rotation_l	hip_flexion_r	hip_adduction_r	hip_rotation_r	knee_angle_l	knee_angle_r	ankle_angle_l	ankle_angle_r	subtalar_angle_l	subtalar_angle_r	mtj_angle_l	mtj_angle_r	mtp_angle_l	mtp_angle_r	lumbar_extension	lumbar_bending	lumbar_rotation	arm_flex_l	arm_add_l	arm_rot_l	arm_flex_r	arm_add_r	arm_rot_r	elbow_flex_l	elbow_flex_r	pro_sup_l	pro_sup_r	glut_med1_l/activation	glut_med2_l/activation	glut_med3_l/activation	glut_min1_l/activation	glut_min2_l/activation	glut_min3_l/activation	semimem_l/activation	semiten_l/activation	bifemlh_l/activation	bifemsh_l/activation	sar_l/activation	add_long_l/activation	add_brev_l/activation	add_mag1_l/activation	add_mag2_l/activation	add_mag3_l/activation	tfl_l/activation	pect_l/activation	grac_l/activation	glut_max1_l/activation	glut_max2_l/activation	glut_max3_l/activation	iliacus_l/activation	psoas_l/activation	quad_fem_l/activation	gem_l/activation	peri_l/activation	rect_fem_l/activation	vas_med_l/activation	vas_int_l/activation	vas_lat_l/activation	med_gas_l/activation	lat_gas_l/activation	soleus_l/activation	tib_post_l/activation	flex_dig_l/activation	flex_hal_l/activation	tib_ant_l/activation	per_brev_l/activation	per_long_l/activation	per_tert_l/activation	ext_dig_l/activation	ext_hal_l/activation	ercspn_l/activation	intobl_l/activation	extobl_l/activation	glut_med1_r/activation	glut_med2_r/activation	glut_med3_r/activation	glut_min1_r/activation	glut_min2_r/activation	glut_min3_r/activation	semimem_r/activation	semiten_r/activation	bifemlh_r/activation	bifemsh_r/activation	sar_r/activation	add_long_r/activation	add_brev_r/activation	add_mag1_r/activation	add_mag2_r/activation	add_mag3_r/activation	tfl_r/activation	pect_r/activation	grac_r/activation	glut_max1_r/activation	glut_max2_r/activation	glut_max3_r/activation	iliacus_r/activation	psoas_r/activation	quad_fem_r/activation	gem_r/activation	peri_r/activation	rect_fem_r/activation	vas_med_r/activation	vas_int_r/activation	vas_lat_r/activation	med_gas_r/activation	lat_gas_r/activation	soleus_r/activation	tib_post_r/activation	flex_dig_r/activation	flex_hal_r/activation	tib_ant_r/activation	per_brev_r/activation	per_long_r/activation	per_tert_r/activation	ext_dig_r/activation	ext_hal_r/activation	ercspn_r/activation	intobl_r/activation	extobl_r/activation	
          0.58267389	         -2.93017651	          2.53441162	         -5.97779309	          0.72834236	          0.91845130	          0.00063899	         29.41019677	          3.96519306	         -0.76888261	        -16.08492588	         -1.94958005	          7.38090610	        -11.81697934	        -11.39915358	          4.69988857	         -5.13791229	         -4.74325171	         12.18519198	         -0.06811637	          7.75981420	         -0.81668327	          6.35120763	         -1.86966150	         -0.69804808	          2.23057359	         -5.52566075	        -13.49219722	          7.09433455	          4.77542543	        -13.46728460	         17.12426849	         15.66463926	         37.20367839	         86.51662706	         86.51662706	          0.05971122	          0.05971122	          0.05000000	          0.05971123	          0.05971122	          0.05953580	          0.09808805	          0.05906093	          0.18447239	          0.05000001	          0.05000004	          0.12145086	          0.30934328	          0.13219563	          0.16245871	          0.11448565	          0.05000000	          0.07316963	          0.08662460	          0.05000004	          0.05000008	          0.15142648	          0.05228668	          0.05000003	          0.22635505	          0.25386807	          0.13641518	          0.06216590	          0.16601750	          0.16468952	          0.14550909	          0.05616818	          0.05000197	          0.05778755	          0.05000000	          0.05000002	          0.05000001	          0.56346036	          0.27588514	          0.16833012	          0.30137996	          0.48152416	          0.24034083	          0.05122763	          0.11301875	          0.10169840	          0.27141540	          0.10162916	          0.06383834	          0.29760189	          0.20469108	          0.10225091	          0.05000010	          0.05000001	          0.05000001	          0.05325326	          0.10407663	          0.09956449	          0.06721775	          0.05000016	          0.05000020	          0.05000006	          0.28590421	          0.09711247	          0.05000018	          0.05000028	          0.05000018	          0.05000010	          0.35849630	          0.53739660	          0.05000006	          0.05000009	          0.05000001	          0.23276683	          0.07951359	          0.05000142	          0.05000152	          0.26489721	          0.36507081	          0.34496832	          0.23799625	          0.21294736	          0.28877907	          0.05000000	          0.05971125	          0.17094485	          0.05000001	          0.05000000	          0.05000001	          0.05000000	          0.05000010	          0.05658107	
          0.59432737	         -2.92794782	          2.62068212	         -6.23492750	          0.74619874	          0.91741226	          0.00044469	         28.64071438	          4.33900252	         -0.52039753	        -15.91062423	         -2.25089010	          7.16320345	        -11.86947059	        -13.36948865	          4.01737519	         -5.80203293	         -5.16874855	         13.19969297	         -0.01530723	          6.45636955	         -0.82753073	          8.29897664	         -1.66182859	         -0.90629285	          2.30742411	         -6.49267919	        -13.49614975	          6.85603721	          4.39168889	        -13.48886024	         17.38886919	         15.35599210	         38.46899555	         86.51662706	         86.51662706	          0.05000000	          0.05000000	          0.10871722	          0.05000000	          0.05000000	          0.05000000	          0.08213536	          0.05000001	          0.15447043	          0.05000000	          0.05000003	          0.10169852	          0.25903287	          0.32487878	          0.21726992	          0.12784047	          0.05000006	          0.06126977	          0.12352103	          0.08712631	          0.10112717	          0.12679901	          0.05000000	          0.05000002	          0.39231592	          0.21257984	          0.11422908	          0.05971126	          0.18096090	          0.18237939	          0.15318297	          0.05000003	          0.05000012	          0.05000001	          0.06326020	          0.05971111	          0.05971124	          0.47182112	          0.30232251	          0.19319354	          0.25371412	          0.46019926	          0.20125262	          0.05000000	          0.09463776	          0.08515852	          0.22727333	          0.08510055	          0.05417070	          0.24920094	          0.17140083	          0.08562117	          0.05000030	          0.05000005	          0.05000007	          0.05000000	          0.08714999	          0.18903668	          0.05971130	          0.05971139	          0.05971129	          0.05971124	          0.23940574	          0.10166989	          0.05003386	          0.05000048	          0.05000049	          0.05971115	          0.30019170	          0.50126242	          0.05971124	          0.05971131	          0.05971122	          0.19491043	          0.06869660	          0.14503935	          0.14503938	          0.22181523	          0.30569694	          0.28886385	          0.19928936	          0.17831435	          0.24181305	          0.05000000	          0.05000003	          0.17832615	          0.05000000	          0.05000000	          0.05000001	          0.06273843	          0.05971129	          0.06215619	
          0.60598084	         -2.92105562	          2.70810874	         -6.45595885	          0.76435467	          0.91638905	          0.00027523	         27.72952662	          4.62601705	         -0.24732993	        -15.66710902	         -2.54413250	          6.94123127	        -12.20178778	        -15.43009415	          3.52013027	         -6.58928578	         -5.60322283	         14.13364064	         -0.24513791	          4.91100299	         -0.85208161	         10.39620509	         -1.43324531	         -1.12455710	          2.37181929	         -7.47513989	        -13.50794719	          6.68528534	          3.92305841	        -13.50904422	         17.56717746	         15.07908380	         39.71841457	         86.51662706	         86.51662706	          0.25474027	          0.26340854	          0.31339871	          0.36202585	          0.22570131	          0.17408550	          0.08740312	          0.07339301	          0.13548759	          0.08515844	          0.05971119	          0.08515863	          0.21690465	          0.27204161	          0.18193389	          0.11969824	          0.05000003	          0.05130516	          0.10343203	          0.18072053	          0.13814697	          0.10617687	          0.05000010	          0.05000003	          0.32851100	          0.17800659	          0.23180801	          0.05000003	          0.15153004	          0.15271783	          0.12826982	          0.05000001	          0.05000002	          0.05000000	          0.05297178	          0.05000001	          0.05000003	          0.58273092	          0.35185749	          0.18398595	          0.45279846	          0.54341601	          0.27465310	          0.06424028	          0.10169839	          0.07130863	          0.35790282	          0.07126009	          0.05000000	          0.32433471	          0.14352480	          0.07169604	          0.05000016	          0.05000001	          0.05000000	          0.05000003	          0.07297632	          0.15829241	          0.05000010	          0.05000015	          0.05000010	          0.05000003	          0.20046967	          0.08513483	          0.05000009	          0.05000017	          0.05000008	          0.05000003	          0.25136959	          0.46883720	          0.05000002	          0.05000010	          0.05000002	          0.16321087	          0.05752403	          0.12145065	          0.12145067	          0.18573995	          0.25597943	          0.24188402	          0.16687762	          0.14931392	          0.20248540	          0.07577053	          0.13459478	          0.18719270	          0.05000001	          0.11491842	          0.05000005	          0.06229603	          0.05000005	          0.05204732	
          0.61763432	         -2.91189111	          2.78375471	         -6.63847505	          0.78254935	          0.91543932	          0.00008627	         26.77467439	          4.88963351	          0.02236322	        -15.30793257	         -2.81300851	          6.73160173	        -12.50364146	        -17.63738880	          3.04537830	         -7.45920960	         -6.05923745	         14.98202236	         -0.26092565	          3.16367185	         -0.79392571	         12.43201747	         -1.21047232	         -1.33708415	          2.42509531	         -8.41723740	        -13.51901327	          6.59057720	          3.41790002	        -13.53419188	         17.68643451	         14.80280884	         40.92024392	         86.51662706	         86.51662706	          0.36833905	          0.38654951	          0.42949318	          0.30314723	          0.18899410	          0.29783077	          0.08194287	          0.10524986	          0.11472497	          0.07130857	          0.05000003	          0.07130872	          0.18162803	          0.22779780	          0.22259343	          0.16805967	          0.05000001	          0.05007394	          0.10514468	          0.25729277	          0.19294135	          0.16514612	          0.05000000	          0.05000000	          0.27508310	          0.14905621	          0.24061481	          0.05000000	          0.18821173	          0.19883321	          0.15140804	          0.05000000	          0.05000000	          0.05000000	          0.05000000	          0.05000000	          0.05000000	          0.65431918	          0.29463259	          0.15406310	          0.58323506	          0.56237084	          0.37036754	          0.08605767	          0.08515851	          0.05971123	          0.29969474	          0.05967059	          0.05000000	          0.27158604	          0.12018242	          0.06003565	          0.05000011	          0.05000001	          0.05000001	          0.05000000	          0.06110772	          0.17597991	          0.07069899	          0.05000038	          0.05000028	          0.05467106	          0.16786597	          0.07128894	          0.05000003	          0.05000015	          0.05000009	          0.05000005	          0.21048770	          0.41921634	          0.05000000	          0.05000003	          0.05000000	          0.13666681	          0.10169837	          0.10169838	          0.10169837	          0.15553184	          0.21434781	          0.20254482	          0.13973721	          0.12503002	          0.16955388	          0.16839778	          0.14065869	          0.15674833	          0.23584241	          0.19310202	          0.05000007	          0.09237566	          0.05000000	          0.05000000	
